<?xml version="1.0" encoding="utf-8"?>
<!-- Generator: Adobe Illustrator 24.3.0, SVG Export Plug-In . SVG Version: 6.00 Build 0)  -->
<svg version="1.1" id="Layer_1" xmlns="http://www.w3.org/2000/svg" xmlns:xlink="http://www.w3.org/1999/xlink" x="0px" y="0px"
	 viewBox="0 0 50 16" style="enable-background:new 0 0 50 16;" xml:space="preserve">
<style type="text/css">
	.st0{fill:#FFD600;}
	.st1{fill:#000001;}
</style>
<g>
	<path class="st0" d="M34,16V0h16v16H34z"/>
	<path class="st1" d="M44.5,12c0.3,0.5,0.6,1,1.4,1c0.6,0,0.9-0.3,0.9-0.7c0-0.5-0.3-0.7-1-0.9l-0.4-0.2c-1-0.4-1.7-1-1.7-2.2
		c0-1.1,0.8-1.9,2.1-1.9c0.9,0,1.6,0.3,2,1.1L46.7,9c-0.2-0.4-0.5-0.6-0.9-0.6c-0.4,0-0.7,0.3-0.7,0.6c0,0.4,0.3,0.6,0.9,0.9
		l0.4,0.2c1.2,0.5,1.9,1.1,1.9,2.2c0,1.3-1,2-2.4,2c-1.3,0-2.1-0.7-2.5-1.5L44.5,12z M39.3,12c0.2,0.4,0.6,0.7,1.1,0.7
		c0.5,0,0.7-0.2,0.7-0.9V7.1h1.5v4.9c0,1.5-0.9,2.2-2.1,2.2c-1.1,0-2-0.8-2.3-1.5L39.3,12z"/>
	<g>
		<path d="M0,6h4.7v0.8H0.8v1.9h3.5v0.7H0.8v2.2h3.9v0.8H0V6z"/>
		<path d="M5.3,7.7h1l1.1,1.6l1.1-1.6l1,0L7.9,10l1.6,2.4h-1l-1.2-1.8l-1.1,1.8h-1L6.9,10L5.3,7.7z"/>
		<path d="M10.2,7.7H11v0.6c0.2-0.2,0.3-0.4,0.5-0.5c0.3-0.2,0.6-0.3,0.9-0.3c0.5,0,1,0.2,1.3,0.6c0.4,0.4,0.6,1,0.6,1.7
			c0,1-0.3,1.7-0.8,2.2c-0.3,0.3-0.7,0.4-1.2,0.4c-0.4,0-0.6-0.1-0.9-0.2c-0.1-0.1-0.3-0.2-0.5-0.4v2.4h-0.8V7.7z M13.1,11.4
			c0.2-0.3,0.4-0.8,0.4-1.4c0-0.4-0.1-0.7-0.2-1c-0.2-0.5-0.6-0.8-1.1-0.8c-0.5,0-0.9,0.3-1.1,0.8c-0.1,0.3-0.2,0.7-0.2,1.1
			c0,0.4,0.1,0.7,0.2,0.9c0.2,0.5,0.6,0.7,1.1,0.7C12.6,11.9,12.9,11.7,13.1,11.4z"/>
		<path d="M15.3,7.7H16v0.8c0.1-0.2,0.2-0.3,0.5-0.6c0.2-0.2,0.5-0.3,0.8-0.3c0,0,0,0,0.1,0c0,0,0.1,0,0.2,0v0.8c0,0-0.1,0-0.1,0
			c0,0-0.1,0-0.1,0c-0.4,0-0.7,0.1-0.9,0.4C16.1,9.1,16,9.4,16,9.7v2.7h-0.8V7.7z"/>
		<path d="M21.1,7.8c0.3,0.2,0.5,0.4,0.7,0.6C22,8.7,22.1,9,22.1,9.3c0,0.2,0.1,0.6,0.1,1h-3.4c0,0.5,0.1,0.9,0.3,1.1
			c0.2,0.3,0.5,0.4,1,0.4c0.4,0,0.7-0.1,1-0.4c0.1-0.2,0.2-0.3,0.3-0.5h0.8c0,0.2-0.1,0.4-0.2,0.6c-0.1,0.2-0.2,0.4-0.4,0.5
			c-0.2,0.2-0.5,0.4-0.9,0.5c-0.2,0-0.4,0.1-0.6,0.1c-0.6,0-1.1-0.2-1.5-0.6c-0.4-0.4-0.6-1-0.6-1.8c0-0.8,0.2-1.4,0.6-1.8
			s0.9-0.7,1.6-0.7C20.5,7.6,20.8,7.7,21.1,7.8z M21.4,9.7c0-0.3-0.1-0.6-0.2-0.8c-0.2-0.4-0.6-0.6-1.1-0.6c-0.4,0-0.7,0.1-0.9,0.4
			c-0.2,0.3-0.4,0.6-0.4,1H21.4z"/>
		<path d="M23.7,10.9c0,0.3,0.1,0.5,0.2,0.6c0.2,0.3,0.5,0.4,1,0.4c0.3,0,0.5-0.1,0.8-0.2c0.2-0.1,0.3-0.3,0.3-0.6
			c0-0.2-0.1-0.4-0.3-0.5c-0.1-0.1-0.3-0.1-0.7-0.2l-0.6-0.2c-0.4-0.1-0.7-0.2-0.9-0.3C23.2,9.7,23,9.4,23,9.1
			c0-0.4,0.2-0.8,0.5-1.1c0.3-0.3,0.7-0.4,1.3-0.4c0.7,0,1.2,0.2,1.5,0.6c0.2,0.3,0.3,0.5,0.3,0.8h-0.7c0-0.2-0.1-0.3-0.2-0.5
			c-0.2-0.2-0.5-0.3-0.9-0.3c-0.3,0-0.5,0.1-0.7,0.2c-0.2,0.1-0.2,0.3-0.2,0.5c0,0.2,0.1,0.4,0.3,0.5c0.1,0.1,0.3,0.1,0.5,0.2
			l0.5,0.1c0.6,0.1,0.9,0.3,1.1,0.4c0.3,0.2,0.5,0.5,0.5,0.9c0,0.4-0.2,0.8-0.5,1.1c-0.3,0.3-0.8,0.5-1.4,0.5
			c-0.7,0-1.2-0.2-1.5-0.5c-0.3-0.3-0.4-0.7-0.5-1.2H23.7z"/>
		<path d="M28.1,10.9c0,0.3,0.1,0.5,0.2,0.6c0.2,0.3,0.5,0.4,1,0.4c0.3,0,0.5-0.1,0.8-0.2c0.2-0.1,0.3-0.3,0.3-0.6
			c0-0.2-0.1-0.4-0.3-0.5c-0.1-0.1-0.3-0.1-0.7-0.2l-0.6-0.2c-0.4-0.1-0.7-0.2-0.9-0.3c-0.3-0.2-0.5-0.5-0.5-0.9
			c0-0.4,0.2-0.8,0.5-1.1c0.3-0.3,0.7-0.4,1.3-0.4c0.7,0,1.2,0.2,1.5,0.6c0.2,0.3,0.3,0.5,0.3,0.8h-0.7c0-0.2-0.1-0.3-0.2-0.5
			c-0.2-0.2-0.5-0.3-0.9-0.3c-0.3,0-0.5,0.1-0.7,0.2c-0.2,0.1-0.2,0.3-0.2,0.5c0,0.2,0.1,0.4,0.3,0.5c0.1,0.1,0.3,0.1,0.5,0.2
			l0.5,0.1c0.6,0.1,0.9,0.3,1.1,0.4c0.3,0.2,0.5,0.5,0.5,0.9c0,0.4-0.2,0.8-0.5,1.1c-0.3,0.3-0.8,0.5-1.4,0.5
			c-0.7,0-1.2-0.2-1.5-0.5c-0.3-0.3-0.4-0.7-0.5-1.2H28.1z"/>
	</g>
</g>
</svg>
